<svg width="25" height="25" xmlns="http://www.w3.org/2000/svg">
 <!-- Created with Method Draw - http://github.com/duopixel/Method-Draw/ -->
 <defs>
  <filter height="200%" width="200%" y="-50%" x="-50%" id="svg_3_blur">
   <feGaussianBlur stdDeviation="0" in="SourceGraphic"/>
  </filter>
 </defs>
 <g>
  <title>background</title>
  <rect fill="#fff" id="canvas_background" height="27" width="27" y="-1" x="-1"/>
  <g display="none" overflow="visible" y="0" x="0" height="100%" width="100%" id="canvasGrid">
   <rect fill="url(#gridpattern)" stroke-width="0" y="0" x="0" height="100%" width="100%"/>
  </g>
 </g>
 <g>
  <title>Layer 1</title>
  <line stroke="#000" filter="url(#svg_3_blur)" stroke-linecap="undefined" stroke-linejoin="undefined" id="svg_3" y2="64" x2="37.92339" y1="64" x1="11.44434" stroke-width="11" fill="none"/>
  <path stroke="#000" id="svg_8" d="m207.68248,53.60881c0.00156,0.94443 0.00204,1.54886 0.00204,1.54886l0.00012,0c0,0 -0.00006,-0.8311 -0.00006,-1.66219l0,-17.21691l-0.00935,0l0,-3.24568l0.02435,0l0,3.24568l-0.00923,0l0,23.40921l-0.00527,0l-0.01013,-6.1923l0.00359,-2.34218l0.00395,2.45551zm0.02202,-18.53911c0,-0.64536 0.00012,-1.3222 0.0003,-2.03682l0.02728,0l0,3.24568l-0.02098,0c0.00011,6.07896 0.02032,7.43579 0.02032,16.20008c0,4.60566 -0.00557,7.66875 -0.01337,7.66875c-0.00953,0 -0.01337,-5.05898 -0.01337,-5.05898l0.00437,-1.84793c0,0 0.003,3.39994 0.00858,3.39994c0.00443,0 0.00761,-1.77238 0.00761,-4.41677c0,-6.28359 -0.02074,-7.64357 -0.02074,-17.15395zm-0.02081,55.41585l-0.01,0l0,-10.49888l0.01,0l0,10.49888zm0.055,-3.67067l0,-9.97945l-0.02,0l0,9.97945l-0.03,0l0,-9.97315l-0.01999,0l0,9.97315l-0.01209,0l0,-68.21599l0.09416,0l0,68.21599l-0.01208,0zm0.00708,-65.06475l-0.08416,0l0,46.95693l0.08416,0l0,-46.95693zm-0.01208,68.73543l-0.01,0l0,-10.49888l0.01,0l0,10.49888z" fill-opacity="null" stroke-opacity="null" stroke-width="0" fill="none"/>
  <path id="svg_15" d="m38.88252,11.20364l-0.42374,0.42371l0.42374,0.42371l-0.24216,0.24229l-0.6659,-0.66601l0.6659,-0.66606" fill-opacity="null" stroke-opacity="null" stroke-width="null" stroke="#000" fill="#000000"/>
  <path id="svg_20" d="m-172.52967,30.13592l-0.74449,-0.74526l0.49031,0l0.74449,0.74526l-0.74449,0.74526l-0.49031,0l0.74449,-0.74526z" stroke-opacity="null" stroke-width="null" stroke="#000" fill="#ffffff"/>
  <path id="svg_22" d="m2.47202,4.96539l2.27671,0l0,-2.79081l2.33548,0l0,2.79081l2.27671,0l0,2.86284l-2.27671,0l0,2.79081l-2.33548,0l0,-2.79081l-2.27671,0l0,-2.86284z" fill-opacity="null" stroke-opacity="0.7" stroke-width="null" stroke="#000000" fill="#ffffff"/>
  <path id="svg_26" d="m18.83884,13.10582l0,0c0.75121,0 1.36019,0.70429 1.36019,1.57306c0,0.86878 -0.60898,1.57306 -1.36019,1.57306c-0.75121,0 -1.36019,-0.70428 -1.36019,-1.57306c0,-0.86878 0.60898,-1.57306 1.36019,-1.57306zm0,10.22224c-0.75121,0 -1.36019,-0.70428 -1.36019,-1.57306c0,-0.86878 0.60898,-1.57306 1.36019,-1.57306c0.75121,0 1.36019,0.70428 1.36019,1.57306c0,0.86878 -0.60898,1.57306 -1.36019,1.57306zm-4.00001,-6.68419l8.00001,0l0,3.14613l-8.00001,0l0,-3.14613z" fill-opacity="null" stroke-opacity="0.7" stroke-width="null" stroke="#000000" fill="#ffffff"/>
  <path stroke="#000000" id="svg_28" d="m14.46093,6.04128l8.00001,0l0,2.66667l-8.00001,0l0,-2.66667z" fill-opacity="null" stroke-opacity="0.7" stroke-width="null" fill="#ffffff"/>
  <path id="svg_29" d="m2.88153,16.33702l1.72409,-2.04735l1.83147,2.17485l1.83147,-2.17485l1.7241,2.04735l-1.83147,2.17487l1.83147,2.17487l-1.7241,2.04737l-1.83147,-2.17487l-1.83147,2.17487l-1.72409,-2.04737l1.83145,-2.17487l-1.83145,-2.17487z" fill-opacity="null" stroke-opacity="0.7" stroke-width="null" stroke="#000000" fill="#ffffff"/>
 </g>
</svg>