<?xml version="1.0" encoding="UTF-8" standalone="no"?>
<svg
   xmlns:osb="http://www.openswatchbook.org/uri/2009/osb"
   xmlns:dc="http://purl.org/dc/elements/1.1/"
   xmlns:cc="http://creativecommons.org/ns#"
   xmlns:rdf="http://www.w3.org/1999/02/22-rdf-syntax-ns#"
   xmlns:svg="http://www.w3.org/2000/svg"
   xmlns="http://www.w3.org/2000/svg"
   xmlns:xlink="http://www.w3.org/1999/xlink"
   xmlns:sodipodi="http://sodipodi.sourceforge.net/DTD/sodipodi-0.dtd"
   xmlns:inkscape="http://www.inkscape.org/namespaces/inkscape"
   width="50"
   height="50"
   viewBox="0 0 13.229166 13.229167"
   version="1.1"
   id="svg8"
   sodipodi:docname="left_arrow.svg"
   inkscape:version="1.0.1 (3bc2e813f5, 2020-09-07)">
  <defs
     id="defs2">
    <linearGradient
       id="linearGradient2825"
       osb:paint="solid">
      <stop
         style="stop-color:#ffffff;stop-opacity:1;"
         offset="0"
         id="stop2823" />
    </linearGradient>
    <linearGradient
       id="linearGradient861"
       osb:paint="solid">
      <stop
         style="stop-color:#ffffff;stop-opacity:1;"
         offset="0"
         id="stop859" />
    </linearGradient>
    <linearGradient
       id="linearGradient851"
       osb:paint="solid">
      <stop
         style="stop-color:#ffffff;stop-opacity:1;"
         offset="0"
         id="stop849" />
    </linearGradient>
    <linearGradient
       inkscape:collect="always"
       xlink:href="#linearGradient2825"
       id="linearGradient2827"
       x1="-2.4002489"
       y1="9.5390563"
       x2="2.1390084"
       y2="9.5390563"
       gradientUnits="userSpaceOnUse"
       gradientTransform="matrix(6.1631765,-5.5602614,6.094902,5.6225465,-19.478771,-28.700317)" />
    <clipPath
       clipPathUnits="userSpaceOnUse"
       id="clipPath886">
      <path
         id="path888"
         style="fill:#ff0000;fill-opacity:1;fill-rule:nonzero;stroke:none"
         d="M 10.503906,0.59179688 V 49.568359 h 49.470703 v -6.607421 c -0.624991,-0.151333 -1.132855,-0.27716 -2.433593,-0.601563 -3.859034,-1.187958 -4.499657,-1.216162 -7.804688,-2.75 C 48.882881,39.213299 48.111427,38.639 47.230469,38.308594 47.09588,38.258104 46.9906,38.590022 46.859375,38.53125 46.309174,38.284761 45.95827,37.674271 45.386719,37.482422 c -0.174936,-0.05872 -3.1e-4,0.370133 0,0.554687 -0.676803,-2.184622 0.3234,0.997784 -0.675781,-1.755859 -0.048,1.285808 -0.119333,2.571494 -0.08203,3.857422 0.05124,1.767027 -1.739386,1.816003 -1.785156,0.04883 -0.05741,-2.217283 0.19843,-4.432453 0.08984,-6.650391 -0.03795,-0.864153 -0.05814,-1.730524 -0.113282,-2.59375 -0.04777,-0.747784 -0.151318,-1.490265 -0.195312,-2.238281 -0.01912,-0.324942 -0.02835,-0.652533 -0.04492,-0.978516 -0.103685,-0.459512 -0.201273,-0.919646 -0.257812,-1.386718 -0.06081,-0.502285 0,-1.011626 0,-1.517578 v -3.75 -11.6074222 c 0,-1.7677671 1.785156,-1.7677671 1.785156,0 v 6.1093752 c 0.232106,-0.602361 0.467415,-1.204302 0.683594,-1.8125 0.140447,-0.395117 0.169569,-0.833432 0.371093,-1.201172 0.124407,-0.227027 0.550786,-0.265628 0.574219,-0.523438 0.05557,-0.609005 -1.846419,-0.757364 -0.382812,-1.792968 0.05471,-0.175091 0.2718,-0.246484 0.408203,-0.369141 0.267919,-0.1484508 0.52538,-0.3195638 0.804687,-0.4453125 1.031845,-0.4645625 0.709989,0.0058 1.888672,-0.8710937 0.362623,-0.2697759 0.627773,-0.6522831 0.966797,-0.9511719 1.835853,-1.6184969 1.780751,-1.4957156 3.728516,-2.8144531 1.357995,0.1729591 0.770766,0.099948 1.355468,0.1757812 0.01416,-0.055988 0.02807,-0.1123671 0.04297,-0.1679688 -0.05691,-0.069386 -0.09986,-0.152174 -0.123047,-0.234375 C 54.308466,4.1507166 54.131683,3.6837665 54.283204,3.2792989 54.64424,2.3155402 55.463335,2.4175449 56.214845,2.3339864 57.468837,2.2085541 58.72203,2.0946434 59.97461,1.9707051 V 0.59179688 Z M 54.548828,4.8007812 c 0.05691,0.069386 0.128039,0.1257042 0.207031,0.1582032 0.197933,0.081444 2.272233,0.3368884 -0.25,0.00977 -0.110243,0.4358991 -0.203555,0.8805397 -0.347656,1.2988281 -1.913643,1.2956504 -1.842816,1.1569817 -3.59375,2.7109375 -0.299932,0.2661899 -0.530934,0.6113518 -0.853515,0.8496094 -0.474169,0.3502326 -0.99335,0.6385366 -1.519532,0.9042976 -1.054756,0.532733 -1.295603,0.617654 -1.273437,0.570312 0.02168,0.539825 0.05383,1.079788 -0.0059,1.615235 -0.05269,0.472624 -0.254654,0.916502 -0.412109,1.365234 -0.30819,0.878337 -0.656463,1.742117 -0.984375,2.613281 -0.258705,0.644807 -0.628518,1.256481 -0.775391,1.935547 -0.251051,1.160816 -0.317003,2.354913 -0.408203,3.539063 -0.132011,1.714339 -0.06412,3.483164 0.0293,5.21289 0.0597,0.238638 0.121505,0.476904 0.173828,0.716797 0.140693,0.430641 0.314729,0.850828 0.421875,1.291016 0.177045,0.727347 0.305576,1.466854 0.429688,2.205078 0.08144,0.484421 0.07063,0.983823 0.1875,1.460937 0.424025,1.731096 0.661762,1.851903 1.232422,3.34961 0.04109,0.107835 0.07076,0.220007 0.105468,0.330078 4.913629,1.172672 1.579158,0.550343 6.617188,2.326172 1.491103,0.525591 3.023262,0.926276 4.535156,1.388671 1.023058,0.25426 1.369048,0.336252 1.910156,0.470703 V 3.7617188 c -1.193407,0.1178988 -2.386864,0.2300277 -3.582031,0.3496093 -0.183369,0.020407 -0.368578,0.030787 -0.552734,0.046875 -0.02377,0.037488 -0.03653,0.08376 -0.07227,0.1113281 -0.09309,0.071826 -0.463573,-0.021857 -0.349609,-0.050781 0.137896,-0.035012 0.27987,-0.048141 0.421875,-0.060547 0.07636,-0.1204208 0.119196,-0.2677452 0.177734,-0.4003906 0.0079,-0.018136 0.02085,-0.054579 0.002,-0.060547 -0.294896,-0.093112 -0.71695,-0.4749859 -0.898443,-0.2246094 -0.285068,0.3932395 -0.444883,0.8528879 -0.572266,1.328125 z m -7.648437,5.8828128 c -9.66e-4,0.07929 0.0066,0.158904 0.0078,0.238281 0.01249,-0.03004 0.02225,-0.0379 0.0293,-0.05859 0.01958,-0.05754 -0.03639,-0.240466 -0.03711,-0.179687 z" />
    </clipPath>
  </defs>
  <sodipodi:namedview
     id="base"
     pagecolor="#ffffff"
     bordercolor="#666666"
     borderopacity="1.0"
     inkscape:pageopacity="0.0"
     inkscape:pageshadow="2"
     inkscape:zoom="5.6"
     inkscape:cx="12.071402"
     inkscape:cy="46.161987"
     inkscape:document-units="mm"
     inkscape:current-layer="layer1"
     inkscape:document-rotation="0"
     showgrid="false"
     units="px"
     inkscape:snap-bbox="false"
     inkscape:window-width="2560"
     inkscape:window-height="1047"
     inkscape:window-x="-8"
     inkscape:window-y="-8"
     inkscape:window-maximized="1" />
  <metadata
     id="metadata5">
    <rdf:RDF>
      <cc:Work
         rdf:about="">
        <dc:format>image/svg+xml</dc:format>
        <dc:type
           rdf:resource="http://purl.org/dc/dcmitype/StillImage" />
        <dc:title />
      </cc:Work>
    </rdf:RDF>
  </metadata>
  <g
     inkscape:label="Layer 1"
     inkscape:groupmode="layer"
     id="layer1">
    <path
       id="rect841"
       clip-path="url(#clipPath886)"
       style="fill:url(#linearGradient2827);fill-opacity:1;stroke:#ffffff;stroke-width:2.55408;stroke-linejoin:round;stroke-opacity:1"
       transform="scale(0.26458333)"
       d="M 37.855469,1.8691406 11.78125,25.394531 36.601562,48.291016 c 0.630507,-1.375257 0.861611,-1.54314 2.240235,-3.339844 0.204623,-0.266646 0.418758,-0.48419 0.634765,-0.673828 -0.225293,-0.429581 -0.392578,-0.938604 -0.392578,-1.617188 V 31.21875 24.066406 18.035156 8.4355469 3.0019531 Z M 57.640625,20.123047 c 0.0013,0.571804 -0.100554,1.204086 -0.232422,1.794922 0.02948,0.362445 0.06863,0.552642 0.09766,0.96289 0.0053,0.07362 0.140332,2.547941 -0.277343,2.824219 -0.03666,0.02419 -0.08467,0.03598 -0.125,0.05664 -1.2e-5,0.489004 2.6e-5,0.977788 0,1.466797 -5.3e-5,0.151226 5.6e-5,0.303856 0,0.455078 0.514783,-2.040095 1.006544,-4.116221 1.226562,-5.023438 0.178583,-0.763459 0.230936,-1.004724 0.367188,-1.560547 z" />
  </g>
</svg>
