<svg width="50" height="50" xmlns="http://www.w3.org/2000/svg">
 <!-- Created with Method Draw - http://github.com/duopixel/Method-Draw/ -->
 <defs>
  <filter height="200%" width="200%" y="-50%" x="-50%" id="svg_3_blur">
   <feGaussianBlur stdDeviation="0" in="SourceGraphic"/>
  </filter>
 </defs>
 <g>
  <title>background</title>
  <rect fill="#fff" id="canvas_background" height="52" width="52" y="-1" x="-1"/>
  <g display="none" overflow="visible" y="0" x="0" height="100%" width="100%" id="canvasGrid">
   <rect fill="url(#gridpattern)" stroke-width="0" y="0" x="0" height="100%" width="100%"/>
  </g>
 </g>
 <g>
  <title>Layer 1</title>
  <line stroke="#000" filter="url(#svg_3_blur)" stroke-linecap="undefined" stroke-linejoin="undefined" id="svg_3" y2="64" x2="37.92339" y1="64" x1="11.44434" stroke-width="11" fill="none"/>
  <path stroke="#000" id="svg_8" d="m207.68248,53.60881c0.00156,0.94443 0.00204,1.54886 0.00204,1.54886l0.00012,0c0,0 -0.00006,-0.8311 -0.00006,-1.66219l0,-17.21691l-0.00935,0l0,-3.24568l0.02435,0l0,3.24568l-0.00923,0l0,23.40921l-0.00527,0l-0.01013,-6.1923l0.00359,-2.34218l0.00395,2.45551zm0.02202,-18.53911c0,-0.64536 0.00012,-1.3222 0.0003,-2.03682l0.02728,0l0,3.24568l-0.02098,0c0.00011,6.07896 0.02032,7.43579 0.02032,16.20008c0,4.60566 -0.00557,7.66875 -0.01337,7.66875c-0.00953,0 -0.01337,-5.05898 -0.01337,-5.05898l0.00437,-1.84793c0,0 0.003,3.39994 0.00858,3.39994c0.00443,0 0.00761,-1.77238 0.00761,-4.41677c0,-6.28359 -0.02074,-7.64357 -0.02074,-17.15395zm-0.02081,55.41585l-0.01,0l0,-10.49888l0.01,0l0,10.49888zm0.055,-3.67067l0,-9.97945l-0.02,0l0,9.97945l-0.03,0l0,-9.97315l-0.01999,0l0,9.97315l-0.01209,0l0,-68.21599l0.09416,0l0,68.21599l-0.01208,0zm0.00708,-65.06475l-0.08416,0l0,46.95693l0.08416,0l0,-46.95693zm-0.01208,68.73543l-0.01,0l0,-10.49888l0.01,0l0,10.49888z" fill-opacity="null" stroke-opacity="null" stroke-width="0" fill="none"/>
  <path id="svg_9" d="m44.56983,5.81342l-6.81639,-3.10372c-1.7198,-0.78231 -3.98593,-0.40578 -5.06958,0.84037l-2.68672,3.09793l13.04004,5.93328l2.68884,-3.09649c1.07954,-1.24763 0.56431,-2.89081 -1.15619,-3.67137l0,0zm-37.77747,27.59925l13.04075,5.93322l21.25426,-24.51151l-13.04695,-5.93477l-21.24805,24.51305l0,0zm-1.99197,7.53838l-0.28802,5.57298l6.80593,-2.6079l6.32464,-2.41919l-12.58083,-5.72759l-0.26172,5.18171l0,0l0,0z" fill-opacity="null" stroke-opacity="null" stroke-width="null" stroke="#000" fill="#000000"/>
  <path id="svg_10" d="m126.74834,46.19402l-0.15779,-0.09917c-0.03981,-0.025 -0.09227,-0.01297 -0.11735,0.02685l-0.06219,0.09899l0.30185,0.18959l0.06224,-0.09894c0.02499,-0.03987 0.01306,-0.09237 -0.02676,-0.11731l0,0zm-0.87448,0.88188l0.30187,0.18958l0.492,-0.78322l-0.30201,-0.18963l-0.49185,0.78327l0,0zm-0.04611,0.24087l-0.00667,0.17807l0.15754,-0.08333l0.1464,-0.0773l-0.29122,-0.18301l-0.00606,0.16557l0,0l0,0z" fill-opacity="null" stroke-opacity="null" stroke-width="null" stroke="#000" fill="#000000"/>
 </g>
</svg>